<?xml version="1.0" encoding="UTF-8"?>
<svg version="1.1" xmlns="http://www.w3.org/2000/svg" width="500" height="500">
<path d="M0 0 C0.33 0.99 0.66 1.98 1 3 C-3.68 5.86 -3.68 5.86 -6 6.875 C-8.25015205 8.01187285 -8.25015205 8.01187285 -10.4375 10.5625 C-13.22519094 13.21420601 -14.38340861 13.31578001 -18 14 C-19.24174796 15.9001177 -19.24174796 15.9001177 -20 18 C-22 20 -22 20 -24.1875 20.75 C-27.49513236 22.22005882 -29.63209824 24.21870015 -32.30078125 26.62109375 C-34 28 -34 28 -36.6875 29.0625 C-39.23470112 29.8757225 -39.23470112 29.8757225 -41 32.5 C-43.26460769 35.33075962 -44.69908708 35.71183886 -48 37 C-48.825 37.825 -49.65 38.65 -50.5 39.5 C-53.06423585 42.06423585 -54.71624019 42.68649608 -58 44 C-58.825 44.825 -59.65 45.65 -60.5 46.5 C-63 49 -63 49 -65.375 49.9375 C-68.62479696 51.25289401 -70.6981769 53.2015491 -73.25390625 55.5625 C-75.08097509 57.06666405 -76.89023193 57.94511596 -79 59 C-80.17412886 59.96662063 -81.32038216 60.96802047 -82.4375 62 C-85.19939055 64.44389036 -87.56806602 65.64528922 -91 67 C-92.68711423 68.6459651 -94.3545622 70.31237149 -96 72 C-97.33333333 72.66666667 -98.66666667 73.33333333 -100 74 C-100.804375 74.825 -101.60875 75.65 -102.4375 76.5 C-105 79 -105 79 -107.4375 79.9375 C-110.08508985 81.03528116 -111.03184727 81.94050551 -112.9375 84 C-115.68432371 86.93184293 -118.10371174 87.91266374 -122 89 C-122.33 89.66 -122.66 90.32 -123 91 C-18.72 91 85.56 91 193 91 C193.33 92.32 193.66 93.64 194 95 C192.60823368 95.96423026 191.2113777 96.92111602 189.8125 97.875 C189.03519531 98.40867187 188.25789063 98.94234375 187.45703125 99.4921875 C184.45442526 101.33480421 181.58155906 103 178 103 C177.566875 103.433125 177.13375 103.86625 176.6875 104.3125 C173.31607041 107.68392959 169.25258525 109.32437685 164.89453125 111.109375 C162.75421666 112.11554351 160.85236128 113.32910221 158.875 114.625 C156.57103431 116.12125358 155.22713971 116.96025055 152.5 117.4375 C149.6312587 118.08296679 148.40871399 119.1175287 146.125 120.9375 C142.55449931 123.77230206 139.43891801 124.8685111 135 126 C133.9805881 126.98020375 132.97753644 127.97803008 132 129 C130.33985384 129.36442233 128.67293936 129.69972883 127 130 C126.34 130.66 125.68 131.32 125 132 C122.375 132.625 122.375 132.625 120 133 C120 133.66 120 134.32 120 135 C115.15939723 138.06242216 111.70709064 139.53411505 106 140 C106 140.66 106 141.32 106 142 C102.38646662 144.77317678 99.51077683 146.39043556 95 147 C91.94055982 147.75494504 91.94055982 147.75494504 90.1875 149.9375 C88 152 88 152 85.203125 152.91015625 C81.86527968 154.04583777 79.46216429 155.51358266 76.5625 157.5 C73.41127038 159.57509542 70.67625989 161.34459417 67 162.25 C63.82667038 163.0433324 63.12057615 163.6866442 61 166 C60.236875 166.2990625 59.47375 166.598125 58.6875 166.90625 C55.99544352 168.00185438 53.97390343 169.30404084 51.625 171 C47.80779175 173.62039378 44.4579695 174.72629443 40 176 C37.69492684 177.4349185 35.49434212 178.98541988 33.2734375 180.546875 C31.09860481 181.93697424 29.11597086 182.83888936 26.6875 183.6875 C23.40722495 184.85505553 21.64830837 185.8813533 19 188 C13.79847909 190.81749049 13.79847909 190.81749049 10.8125 191.5 C8.91096918 191.85757346 8.91096918 191.85757346 7.6875 193.375 C4.03535112 196.8918841 -1.08055736 198.2546299 -6 199 C-6 199.66 -6 200.32 -6 201 C-10.97290076 204.81641221 -10.97290076 204.81641221 -14.42578125 205.43359375 C-17.39289225 206.08644822 -19.06067694 207.21345353 -21.5 209 C-24.6855367 211.33306913 -27.07338693 212.44695591 -31 213 C-27.77403651 213.85257607 -24.53416312 214.4760423 -21.25 215.0625 C-19.77273438 215.32740234 -19.77273438 215.32740234 -18.265625 215.59765625 C-17.51796875 215.73042969 -16.7703125 215.86320313 -16 216 C-16 216.66 -16 217.32 -16 218 C-15.08734375 218.03867187 -15.08734375 218.03867187 -14.15625 218.078125 C-3.58966002 218.76184553 6.77951488 221.24779568 16.625 225.125 C21.92925263 227.17619135 27.18611599 227.86673131 32.80859375 228.5703125 C36.41345292 229.05566686 39.59523 229.73310884 43 231 C43.33 231.66 43.66 232.32 44 233 C46.6176029 233.37953736 49.18082099 233.65464074 51.8125 233.875 C60.13804877 234.70642073 67.43368062 236.7417779 75.1953125 239.890625 C80.12100377 241.86090151 84.705668 242.64459345 90 243 C91.125 246.75 91.125 246.75 90 249 C84.25 249.125 84.25 249.125 82 248 C82 248.66 82 249.32 82 250 C81.01 249.67 80.02 249.34 79 249 C76.99041783 249.26961199 74.98988956 249.61083341 73 250 C72.04480469 250.15339844 71.08960938 250.30679688 70.10546875 250.46484375 C65.40773351 251.22578882 60.75523668 252.02032424 56.125 253.125 C52.68648583 253.93148787 49.54164868 254.08854122 46 254 C45.67 254.33 45.34 254.66 45 255 C37.96471376 256.27322882 30.96521654 257.14229542 23.8125 257 C15.99840319 256.87580243 8.65541588 258.42766245 1.04296875 260.05859375 C-0.27960938 260.33654785 -0.27960938 260.33654785 -1.62890625 260.62011719 C-3.38265152 260.9909054 -5.13413227 261.372617 -6.8828125 261.76660156 C-11.97288466 262.84673892 -15.89751952 263.08109236 -21 262 C-21 262.66 -21 263.32 -21 264 C-21.72445313 263.98839844 -22.44890625 263.97679687 -23.1953125 263.96484375 C-28.27952252 263.91739112 -32.99248179 264.06109034 -38 265 C-40.80293886 265.26714227 -43.60706298 265.49859318 -46.4140625 265.71875 C-48.70863716 265.96831099 -50.7795837 266.39270665 -53 267 C-53.86625 267.165 -54.7325 267.33 -55.625 267.5 C-58.00287908 267.89587313 -58.00287908 267.89587313 -60 269 C-66.78437024 270.17504263 -73.60390462 271.15602026 -80.5 271 C-90.42412102 270.82461053 -100.02354748 272.70971621 -109.625 275 C-118.9577084 277.22071332 -128.2958214 278.03908975 -137.84106445 278.79443359 C-140.58632545 279.05582789 -143.28276445 279.53568783 -146 280 C-147.9453478 280 -149.89088326 279.99863813 -151.8359375 279.96484375 C-154.99574633 280.01617638 -158.08763654 280.44442292 -161.21484375 280.87890625 C-161.80394531 280.91886719 -162.39304688 280.95882813 -163 281 C-165.14055783 278.85944217 -164.18641186 273.95051636 -164.20532227 270.98217773 C-164.21522186 270.03593536 -164.22512146 269.08969299 -164.23532104 268.11477661 C-164.26703803 264.97107489 -164.29173361 261.82735802 -164.31640625 258.68359375 C-164.33696698 256.51025488 -164.35796321 254.33692009 -164.37937927 252.16358948 C-164.43469095 246.43103326 -164.48405997 240.69844042 -164.53222656 234.96582031 C-164.58237535 229.12106042 -164.6380959 223.276354 -164.69335938 217.43164062 C-164.80105213 205.95447272 -164.90247225 194.47725847 -165 183 C-173.415 183.99 -173.415 183.99 -182 185 C-182 185.66 -182 186.32 -182 187 C-184.74875682 187.67218507 -187.49880726 188.33792435 -190.25 189 C-191.02730469 189.19078125 -191.80460937 189.3815625 -192.60546875 189.578125 C-193.35957031 189.75859375 -194.11367187 189.9390625 -194.890625 190.125 C-195.92751465 190.37636719 -195.92751465 190.37636719 -196.98535156 190.6328125 C-199 191 -199 191 -203 191 C-205.01737659 191.58931517 -207.01707645 192.2409981 -209 192.9375 C-219.44124625 196.57888463 -229.98455438 198.19035409 -241 199 C-241 199.66 -241 200.32 -241 201 C-249.6790123 203.60892153 -258.34529989 205.22361832 -267.34375 206.2734375 C-268.90363642 206.45883384 -270.454473 206.71899509 -272 207 C-272.33 207.66 -272.66 208.32 -273 209 C-275.58203125 209.59765625 -275.58203125 209.59765625 -278.8125 210.0625 C-282.26826479 210.57181491 -285.6199553 211.12499887 -289 212 C-291.69514704 212.50343313 -294.25110818 212.77831518 -297 213 C-299.48869135 210.51130865 -299.25247553 209.7700657 -299.26069641 206.33790588 C-299.26778122 205.35503601 -299.27486603 204.37216614 -299.28216553 203.35951233 C-299.27968811 202.27737961 -299.27721069 201.19524689 -299.2746582 200.08032227 C-299.27976913 198.94368134 -299.28488007 197.80704041 -299.29014587 196.63595581 C-299.3040944 192.86271969 -299.30308114 189.08966515 -299.30078125 185.31640625 C-299.30466527 182.70328198 -299.30899932 180.09015833 -299.31376648 177.47703552 C-299.32198653 171.99338154 -299.32106673 166.50977906 -299.31567383 161.02612305 C-299.3096331 154.6844868 -299.32194537 148.34307236 -299.3432439 142.00147396 C-299.36296769 135.90497418 -299.36603557 129.8085783 -299.36250877 123.71204948 C-299.36302355 121.1160219 -299.36829031 118.51999088 -299.37832069 115.92398262 C-299.39060747 112.29883689 -299.38393975 108.67420922 -299.37231445 105.04907227 C-299.37995819 103.96896378 -299.38760193 102.88885529 -299.39547729 101.77601624 C-299.38846298 100.79032654 -299.38144867 99.80463684 -299.3742218 98.78907776 C-299.37438954 97.93164254 -299.37455729 97.07420732 -299.37473011 96.19078922 C-298.91282793 93.49036483 -298.15044676 92.64985115 -296 91 C-290.64058288 88.89968788 -285.09220257 87.25250721 -279.375 86.5625 C-276.06042304 86.01007051 -274.03942254 85.11125614 -271.0625 83.625 C-265.61196934 80.98691284 -260.33969253 79.91913827 -254.39477539 79.07666016 C-250.50780814 78.48395134 -248.62140677 77.88588105 -246 75 C-243.80859375 74.55859375 -243.80859375 74.55859375 -241.4375 74.4375 C-237.77798662 74.33031056 -237.77798662 74.33031056 -235 72 C-233.00100231 71.6607076 -231.00084154 71.32824421 -229 71 C-227.0413749 70.21760725 -225.10323736 69.38221372 -223.1875 68.5 C-219.60157987 66.94624758 -216.65891061 65.76004874 -212.75 65.625 C-207.31232681 65.32622675 -202.68419324 62.84914312 -197.84667969 60.52587891 C-193.53359992 58.49488007 -189.79678156 57.50219013 -185 57 C-179.99787965 55.90965499 -179.99787965 55.90965499 -176 53 C-174.00390625 52.4375 -174.00390625 52.4375 -171.5625 52 C-170.67949219 51.83757812 -169.79648438 51.67515625 -168.88671875 51.5078125 C-167.93410156 51.34023437 -166.98148438 51.17265625 -166 51 C-163.95832402 50.6250507 -161.91665709 50.25005214 -159.875 49.875 C-158.25016079 49.58243892 -156.62521995 49.29043855 -155 49 C-155 48.34 -155 47.68 -155 47 C-148.10190768 44.52005756 -141.44806279 42.52450747 -134.1796875 41.4921875 C-131.80351885 41.15951418 -131.80351885 41.15951418 -130 39 C-127.90625 38.3671875 -127.90625 38.3671875 -125.5 37.875 C-124.30890625 37.62363281 -124.30890625 37.62363281 -123.09375 37.3671875 C-121 37 -121 37 -119 37 C-118.01 36.01 -118.01 36.01 -117 35 C-115.00239695 34.65259077 -113.00212229 34.32033957 -111 34 C-109.65727208 33.35246316 -108.32496501 32.6831471 -107 32 C-100.96514565 29.48151748 -95.45607823 27.7457618 -88.9296875 27.28125 C-86.19675333 26.88292761 -84.29998457 25.46943458 -82 24 C-79.1875 23.8125 -79.1875 23.8125 -77 24 C-77 23.34 -77 22.68 -77 22 C-75.85660156 21.80664062 -74.71320313 21.61328125 -73.53515625 21.4140625 C-72.04418963 21.15150234 -70.55330851 20.88845639 -69.0625 20.625 C-68.30775391 20.49867187 -67.55300781 20.37234375 -66.77539062 20.2421875 C-64.83716865 19.89452437 -62.91620795 19.45356496 -61 19 C-60.67 18.34 -60.34 17.68 -60 17 C-56.01111885 15.21099536 -51.88897367 14.1131421 -47.5625 13.5625 C-43.55338652 12.92948208 -40.27600545 11.60458561 -36.546875 10.05078125 C-31.43481583 7.94166481 -26.47489527 6.03744228 -20.9375 5.5625 C-16.29069848 4.89867121 -13.06475743 3.22031911 -9 1 C-3.5 -1.625 -3.5 -1.625 0 0 Z M-118 274 C-118 274.33 -118 274.66 -118 275 C-116.35 275 -114.7 275 -113 275 C-113 274.67 -113 274.34 -113 274 C-114.65 274 -116.3 274 -118 274 Z " fill="#0068EE" transform="translate(302,104)"/>
<path d="M0 0 C-3.74925647 4.2037118 -6.80054319 6.13604378 -12 8 C-12.66 8 -13.32 8 -14 8 C-14.433125 8.433125 -14.86625 8.86625 -15.3125 9.3125 C-18.68392959 12.68392959 -22.74741475 14.32437685 -27.10546875 16.109375 C-29.24578334 17.11554351 -31.14763872 18.32910221 -33.125 19.625 C-35.42896569 21.12125358 -36.77286029 21.96025055 -39.5 22.4375 C-42.3687413 23.08296679 -43.59128601 24.1175287 -45.875 25.9375 C-49.44550069 28.77230206 -52.56108199 29.8685111 -57 31 C-58.0194119 31.98020375 -59.02246356 32.97803008 -60 34 C-61.66014616 34.36442233 -63.32706064 34.69972883 -65 35 C-65.66 35.66 -66.32 36.32 -67 37 C-69.625 37.625 -69.625 37.625 -72 38 C-72 38.66 -72 39.32 -72 40 C-76.84060277 43.06242216 -80.29290936 44.53411505 -86 45 C-86 45.66 -86 46.32 -86 47 C-89.61353338 49.77317678 -92.48922317 51.39043556 -97 52 C-100.05944018 52.75494504 -100.05944018 52.75494504 -101.8125 54.9375 C-104 57 -104 57 -106.796875 57.91015625 C-110.13472032 59.04583777 -112.53783571 60.51358266 -115.4375 62.5 C-118.58872962 64.57509542 -121.32374011 66.34459417 -125 67.25 C-128.17332962 68.0433324 -128.87942385 68.6866442 -131 71 C-131.763125 71.2990625 -132.52625 71.598125 -133.3125 71.90625 C-136.00455648 73.00185438 -138.02609657 74.30404084 -140.375 76 C-144.19220825 78.62039378 -147.5420305 79.72629443 -152 81 C-154.30507316 82.4349185 -156.50565788 83.98541988 -158.7265625 85.546875 C-160.90139519 86.93697424 -162.88402914 87.83888936 -165.3125 88.6875 C-168.59277505 89.85505553 -170.35169163 90.8813533 -173 93 C-178.20152091 95.81749049 -178.20152091 95.81749049 -181.1875 96.5 C-183.08903082 96.85757346 -183.08903082 96.85757346 -184.3125 98.375 C-187.96464888 101.8918841 -193.08055736 103.2546299 -198 104 C-198 104.66 -198 105.32 -198 106 C-202.97290076 109.81641221 -202.97290076 109.81641221 -206.42578125 110.43359375 C-209.39289225 111.08644822 -211.06067694 112.21345353 -213.5 114 C-216.6855367 116.33306913 -219.07338693 117.44695591 -223 118 C-219.77403651 118.85257607 -216.53416312 119.4760423 -213.25 120.0625 C-212.26515625 120.23910156 -211.2803125 120.41570312 -210.265625 120.59765625 C-209.51796875 120.73042969 -208.7703125 120.86320312 -208 121 C-208 121.66 -208 122.32 -208 123 C-207.3915625 123.02578125 -206.783125 123.0515625 -206.15625 123.078125 C-195.58966002 123.76184553 -185.22048512 126.24779568 -175.375 130.125 C-170.07074737 132.17619135 -164.81388401 132.86673131 -159.19140625 133.5703125 C-155.58654708 134.05566686 -152.40477 134.73310884 -149 136 C-148.67 136.66 -148.34 137.32 -148 138 C-145.3823971 138.37953736 -142.81917901 138.65464074 -140.1875 138.875 C-131.86195123 139.70642073 -124.56631938 141.7417779 -116.8046875 144.890625 C-111.87899623 146.86090151 -107.294332 147.64459345 -102 148 C-100.875 151.75 -100.875 151.75 -102 154 C-107.75 154.125 -107.75 154.125 -110 153 C-110 153.66 -110 154.32 -110 155 C-110.99 154.67 -111.98 154.34 -113 154 C-115.00958217 154.26961199 -117.01011044 154.61083341 -119 155 C-119.95519531 155.15339844 -120.91039062 155.30679688 -121.89453125 155.46484375 C-126.59226649 156.22578882 -131.24476332 157.02032424 -135.875 158.125 C-139.31351417 158.93148787 -142.45835132 159.08854122 -146 159 C-146.33 159.33 -146.66 159.66 -147 160 C-154.03528624 161.27322882 -161.03478346 162.14229542 -168.1875 162 C-176.00159681 161.87580243 -183.34458412 163.42766245 -190.95703125 165.05859375 C-192.27960938 165.33654785 -192.27960938 165.33654785 -193.62890625 165.62011719 C-195.38265152 165.9909054 -197.13413227 166.372617 -198.8828125 166.76660156 C-203.97288466 167.84673892 -207.89751952 168.08109236 -213 167 C-213 167.66 -213 168.32 -213 169 C-214.08667969 168.98259766 -214.08667969 168.98259766 -215.1953125 168.96484375 C-220.27952252 168.91739112 -224.99248179 169.06109034 -230 170 C-232.80293886 170.26714227 -235.60706298 170.49859318 -238.4140625 170.71875 C-240.70863716 170.96831099 -242.7795837 171.39270665 -245 172 C-245.86625 172.165 -246.7325 172.33 -247.625 172.5 C-250.00287908 172.89587313 -250.00287908 172.89587313 -252 174 C-258.78437024 175.17504263 -265.60390462 176.15602026 -272.5 176 C-282.42412102 175.82461053 -292.02354748 177.70971621 -301.625 180 C-310.9577084 182.22071332 -320.2958214 183.03908975 -329.84106445 183.79443359 C-332.58632545 184.05582789 -335.28276445 184.53568783 -338 185 C-339.9453478 185 -341.89088326 184.99863813 -343.8359375 184.96484375 C-346.99574633 185.01617638 -350.08763654 185.44442292 -353.21484375 185.87890625 C-353.80394531 185.91886719 -354.39304687 185.95882812 -355 186 C-356.93224465 184.06775535 -356.12018438 181.16389611 -356.12442017 178.59291077 C-356.12082489 177.67078293 -356.11722961 176.74865509 -356.11352539 175.79858398 C-356.11367142 174.83283447 -356.11381744 173.86708496 -356.1139679 172.87207031 C-356.11326834 169.66338901 -356.10547397 166.45476497 -356.09765625 163.24609375 C-356.09579222 161.02791882 -356.09436825 158.80974348 -356.09336853 156.59156799 C-356.08954216 150.74059929 -356.07971086 144.88965523 -356.06866455 139.03869629 C-356.05845299 133.07332696 -356.05387146 127.10795367 -356.04882812 121.14257812 C-356.03808869 109.42837456 -356.02101085 97.71418933 -356 86 C-351.44086609 83.61329882 -347.37557675 82.32515976 -342.3125 81.5625 C-337.58721866 80.81935486 -333.48759424 79.86386378 -329.03613281 78.1171875 C-322.81623522 75.82140512 -316.54978392 74.47531344 -310.05859375 73.18359375 C-296.81680124 70.44536914 -283.71300694 67.29199063 -270.60876465 63.96307373 C-265.73093345 62.72434874 -260.85007886 61.49773637 -255.96939087 60.27032471 C-253.56917614 59.6666311 -251.16908789 59.0624344 -248.76913452 58.45770264 C-211.90465106 49.16919422 -211.90465106 49.16919422 -196.15527344 46.23974609 C-191.95579918 45.45153423 -188.04376266 44.41504481 -184 43 C-173.13156381 39.89293549 -162.17685808 37.36260427 -151.0703125 35.25390625 C-143.2450521 33.84118361 -143.2450521 33.84118361 -135.6875 31.4375 C-132.04117055 30.01604954 -128.69432833 29.29361889 -124.8671875 28.58984375 C-121.55299527 27.90804126 -118.32384418 27.02625318 -115.0625 26.125 C-108.23700166 24.26033786 -101.37587366 22.75996026 -94.43383789 21.39501953 C-90.39908503 20.58458229 -86.81865989 19.55902313 -83 18 C-80.77926033 17.5215592 -78.54852804 17.08845992 -76.3125 16.6875 C-70.54474394 15.60600106 -64.94616421 14.20007785 -59.3125 12.5625 C-52.02686752 10.4561525 -44.72257842 8.87349551 -37.27539062 7.45385742 C-30.82802035 6.20994916 -24.53908603 4.62614192 -18.2109375 2.8828125 C-12.07756045 1.19650689 -6.40970222 -0.32870268 0 0 Z M-310 179 C-310 179.33 -310 179.66 -310 180 C-308.35 180 -306.7 180 -305 180 C-305 179.67 -305 179.34 -305 179 C-306.65 179 -308.3 179 -310 179 Z " fill="#004CCC" transform="translate(494,199)"/>
<path d="M0 0 C0.33 0.99 0.66 1.98 1 3 C-3.68 5.86 -3.68 5.86 -6 6.875 C-8.25015205 8.01187285 -8.25015205 8.01187285 -10.4375 10.5625 C-13.22519094 13.21420601 -14.38340861 13.31578001 -18 14 C-19.24174796 15.9001177 -19.24174796 15.9001177 -20 18 C-22 20 -22 20 -24.1875 20.75 C-27.49513236 22.22005882 -29.63209824 24.21870015 -32.30078125 26.62109375 C-34 28 -34 28 -36.6875 29.0625 C-39.23470112 29.8757225 -39.23470112 29.8757225 -41 32.5 C-43.26460769 35.33075962 -44.69908708 35.71183886 -48 37 C-48.825 37.825 -49.65 38.65 -50.5 39.5 C-53.06423585 42.06423585 -54.71624019 42.68649608 -58 44 C-58.825 44.825 -59.65 45.65 -60.5 46.5 C-63 49 -63 49 -65.375 49.9375 C-68.62479696 51.25289401 -70.6981769 53.2015491 -73.25390625 55.5625 C-75.08097509 57.06666405 -76.89023193 57.94511596 -79 59 C-80.17412886 59.96662063 -81.32038216 60.96802047 -82.4375 62 C-85.19939055 64.44389036 -87.56806602 65.64528922 -91 67 C-92.68711423 68.6459651 -94.3545622 70.31237149 -96 72 C-97.33333333 72.66666667 -98.66666667 73.33333333 -100 74 C-100.804375 74.825 -101.60875 75.65 -102.4375 76.5 C-105 79 -105 79 -107.4375 79.9375 C-110.08508985 81.03528116 -111.03184727 81.94050551 -112.9375 84 C-115.68432371 86.93184293 -118.10371174 87.91266374 -122 89 C-122.33 89.66 -122.66 90.32 -123 91 C-18.72 91 85.56 91 193 91 C193 91.33 193 91.66 193 92 C192.32440859 92.00173625 191.64881718 92.0034725 190.95275331 92.00526136 C150.93713083 92.10822555 110.92152519 92.2163242 70.90593483 92.33111694 C66.10428218 92.34488699 61.30262941 92.35861402 56.50097656 92.37231445 C55.06705533 92.37640691 55.06705533 92.37640691 53.604166 92.38058204 C38.11307756 92.42469143 22.62198183 92.46531323 7.13088062 92.50465261 C-8.75712422 92.54507732 -24.64511551 92.5892349 -40.53310037 92.63687855 C-50.34168644 92.66617349 -60.15027149 92.69253527 -69.95887521 92.71517897 C-76.67937104 92.73097216 -83.39985027 92.75038184 -90.12032768 92.77266841 C-94.00123303 92.78543052 -97.8821256 92.79656649 -101.76304626 92.80341911 C-105.96557409 92.81088114 -110.16803985 92.82594236 -114.37054443 92.84178162 C-116.22072257 92.84324878 -116.22072257 92.84324878 -118.10827804 92.84474558 C-119.23092881 92.85022002 -120.35357959 92.85569446 -121.51025009 92.8613348 C-122.48081526 92.86399284 -123.45138042 92.86665089 -124.45135665 92.86938947 C-126.79522134 92.98950569 -128.74612182 93.39160761 -131 94 C-133.24690418 94.09008521 -135.49634745 94.12196326 -137.74505615 94.12025452 C-138.42225999 94.12110894 -139.09946383 94.12196337 -139.797189 94.12284368 C-142.06501494 94.12449002 -144.33276682 94.11899097 -146.60058594 94.11352539 C-148.22677102 94.11324331 -149.85295623 94.11340166 -151.47914124 94.1139679 C-155.89406396 94.11425506 -160.30895958 94.10837141 -164.723876 94.10139394 C-169.3376648 94.09514691 -173.95145421 94.09455553 -178.56524658 94.09336853 C-187.30223851 94.0902592 -196.03921793 94.08205116 -204.77620435 94.07201904 C-214.7229018 94.06084556 -224.66959985 94.05534433 -234.61630201 94.05032361 C-255.07754165 94.03986823 -275.53877004 94.02227648 -296 94 C-296 93.01 -296 92.02 -296 91 C-284.00191939 87.12092131 -284.00191939 87.12092131 -279.375 86.5625 C-276.06042304 86.01007051 -274.03942254 85.11125614 -271.0625 83.625 C-265.61196934 80.98691284 -260.33969253 79.91913827 -254.39477539 79.07666016 C-250.50780814 78.48395134 -248.62140677 77.88588105 -246 75 C-243.80859375 74.55859375 -243.80859375 74.55859375 -241.4375 74.4375 C-237.77798662 74.33031056 -237.77798662 74.33031056 -235 72 C-233.00100231 71.6607076 -231.00084154 71.32824421 -229 71 C-227.0413749 70.21760725 -225.10323736 69.38221372 -223.1875 68.5 C-219.60157987 66.94624758 -216.65891061 65.76004874 -212.75 65.625 C-207.31232681 65.32622675 -202.68419324 62.84914312 -197.84667969 60.52587891 C-193.53359992 58.49488007 -189.79678156 57.50219013 -185 57 C-179.99787965 55.90965499 -179.99787965 55.90965499 -176 53 C-174.00390625 52.4375 -174.00390625 52.4375 -171.5625 52 C-170.67949219 51.83757812 -169.79648438 51.67515625 -168.88671875 51.5078125 C-167.93410156 51.34023437 -166.98148438 51.17265625 -166 51 C-163.95832402 50.6250507 -161.91665709 50.25005214 -159.875 49.875 C-158.25016079 49.58243892 -156.62521995 49.29043855 -155 49 C-155 48.34 -155 47.68 -155 47 C-148.10190768 44.52005756 -141.44806279 42.52450747 -134.1796875 41.4921875 C-131.80351885 41.15951418 -131.80351885 41.15951418 -130 39 C-127.90625 38.3671875 -127.90625 38.3671875 -125.5 37.875 C-124.30890625 37.62363281 -124.30890625 37.62363281 -123.09375 37.3671875 C-121 37 -121 37 -119 37 C-118.01 36.01 -118.01 36.01 -117 35 C-115.00239695 34.65259077 -113.00212229 34.32033957 -111 34 C-109.65727208 33.35246316 -108.32496501 32.6831471 -107 32 C-100.96514565 29.48151748 -95.45607823 27.7457618 -88.9296875 27.28125 C-86.19675333 26.88292761 -84.29998457 25.46943458 -82 24 C-79.1875 23.8125 -79.1875 23.8125 -77 24 C-77 23.34 -77 22.68 -77 22 C-75.85660156 21.80664062 -74.71320313 21.61328125 -73.53515625 21.4140625 C-72.04418963 21.15150234 -70.55330851 20.88845639 -69.0625 20.625 C-68.30775391 20.49867187 -67.55300781 20.37234375 -66.77539062 20.2421875 C-64.83716865 19.89452437 -62.91620795 19.45356496 -61 19 C-60.67 18.34 -60.34 17.68 -60 17 C-56.01111885 15.21099536 -51.88897367 14.1131421 -47.5625 13.5625 C-43.55338652 12.92948208 -40.27600545 11.60458561 -36.546875 10.05078125 C-31.43481583 7.94166481 -26.47489527 6.03744228 -20.9375 5.5625 C-16.29069848 4.89867121 -13.06475743 3.22031911 -9 1 C-3.5 -1.625 -3.5 -1.625 0 0 Z " fill="#004CCE" transform="translate(302,104)"/>
<path d="M0 0 C-3.10372812 2.06915208 -5.48181028 2.84162166 -9.0546875 3.84765625 C-10.29549072 4.20126221 -11.53629395 4.55486816 -12.81469727 4.91918945 C-13.80676682 5.19842758 -13.80676682 5.19842758 -14.81887817 5.48330688 C-18.32676326 6.47145013 -21.82952939 7.47734271 -25.33203125 8.484375 C-26.05122238 8.69097244 -26.77041351 8.89756989 -27.51139832 9.11042786 C-36.05823971 11.57685689 -44.54460036 14.23163896 -53.02880859 16.90454102 C-58.86824391 18.73909907 -64.71744879 20.53525738 -70.58984375 22.26171875 C-71.72156006 22.59518311 -72.85327637 22.92864746 -74.01928711 23.2722168 C-77 24 -77 24 -81 24 C-81 24.66 -81 25.32 -81 26 C-81.98987915 26.26611084 -81.98987915 26.26611084 -82.99975586 26.53759766 C-89.87998341 28.39901458 -96.72544854 30.36142858 -103.5625 32.375 C-111.75154813 34.78148386 -119.94921845 37.13959056 -128.20336914 39.31396484 C-132.66605697 40.51933839 -136.76101686 42.17420241 -141 44 C-143.00762491 44.56962876 -145.02898003 45.09363835 -147.0625 45.5625 C-154.77466225 47.35626178 -162.05567956 50.11380289 -169.46484375 52.87890625 C-172.99700363 53.99904977 -176.33908177 54.48670787 -180 55 C-181.68331054 55.62344835 -183.35116565 56.29037509 -185 57 C-188.27103902 58.0363688 -191.55636955 59.01685818 -194.84375 60 C-197.90445071 60.91940637 -197.90445071 60.91940637 -200.40625 62 C-203.16155103 63.06228473 -205.93719563 63.74891578 -208.80517578 64.4375 C-213.55253825 65.65417666 -218.19036524 67.26371254 -222.84570312 68.7890625 C-227.54836047 70.30432069 -232.22205642 71.54763765 -237.05541992 72.57080078 C-239.24192879 73.05339746 -241.32863599 73.68645587 -243.4375 74.4375 C-246.42130092 75.46956813 -249.40607349 76.4300642 -252.4375 77.3125 C-255.75711394 78.29069345 -259.04318047 79.3423765 -262.3203125 80.453125 C-263.09963135 80.71697998 -263.8789502 80.98083496 -264.68188477 81.25268555 C-266.22806097 81.77864867 -267.77290913 82.30853813 -269.31616211 82.84301758 C-273.78661316 84.36333491 -278.21784995 85.54011401 -282.83666992 86.51489258 C-286.16803581 87.26192158 -289.37023281 88.27811747 -292.625 89.3125 C-293.30812256 89.5283374 -293.99124512 89.7441748 -294.69506836 89.96655273 C-299.33757416 91.44174649 -303.95060798 92.9945535 -308.5625 94.5625 C-314.84245207 96.67575371 -321.15027245 98.4531952 -327.5625 100.10546875 C-333.69756599 101.70198024 -339.12578478 103.48247919 -345 106 C-345.33 98.74 -345.66 91.48 -346 84 C-341.09953919 81.5497696 -337.53815981 80.34964992 -332.3125 79.5625 C-327.58721866 78.81935486 -323.48759424 77.86386378 -319.03613281 76.1171875 C-312.81623522 73.82140512 -306.54978392 72.47531344 -300.05859375 71.18359375 C-286.81680124 68.44536914 -273.71300694 65.29199063 -260.60876465 61.96307373 C-255.73093345 60.72434874 -250.85007886 59.49773637 -245.96939087 58.27032471 C-243.56917614 57.6666311 -241.16908789 57.0624344 -238.76913452 56.45770264 C-201.90465106 47.16919422 -201.90465106 47.16919422 -186.15527344 44.23974609 C-181.95579918 43.45153423 -178.04376266 42.41504481 -174 41 C-163.13156381 37.89293549 -152.17685808 35.36260427 -141.0703125 33.25390625 C-133.2450521 31.84118361 -133.2450521 31.84118361 -125.6875 29.4375 C-122.04117055 28.01604954 -118.69432833 27.29361889 -114.8671875 26.58984375 C-111.55299527 25.90804126 -108.32384418 25.02625318 -105.0625 24.125 C-98.23700166 22.26033786 -91.37587366 20.75996026 -84.43383789 19.39501953 C-80.39908503 18.58458229 -76.81865989 17.55902313 -73 16 C-70.77926033 15.5215592 -68.54852804 15.08845992 -66.3125 14.6875 C-60.54474394 13.60600106 -54.94616421 12.20007785 -49.3125 10.5625 C-42.03017338 8.45710825 -34.7297307 6.86957067 -27.28417969 5.45825195 C-20.77011646 4.20697381 -14.43438271 2.58428995 -8.06640625 0.734375 C-5.23534922 0.05636389 -2.89341296 -0.15143096 0 0 Z " fill="#003FA3" transform="translate(484,201)"/>
<path d="M0 0 C0 0.66 0 1.32 0 2 C0.66 2 1.32 2 2 2 C2 2.66 2 3.32 2 4 C2.66 4 3.32 4 4 4 C3.67 4.99 3.34 5.98 3 7 C0.62062937 8.08070651 -1.661385 8.97146692 -4.125 9.8125 C-5.60732322 10.34220675 -7.08908368 10.87349063 -8.5703125 11.40625 C-9.69421387 11.80650391 -9.69421387 11.80650391 -10.84082031 12.21484375 C-13.92597959 13.33671985 -16.96084498 14.57202856 -20 15.8125 C-27.75558295 18.94615239 -35.58866685 21.86179484 -43.4375 24.75317383 C-48.64622855 26.68540253 -53.7565392 28.72537429 -58.81494141 31.02197266 C-62.66649482 32.74591936 -66.58210063 34.30908428 -70.5 35.875 C-71.36222168 36.22014648 -72.22444336 36.56529297 -73.11279297 36.92089844 C-79.44098205 39.43173433 -85.81878151 41.75588467 -92.25 43.98730469 C-99.05426295 46.34989599 -105.70247501 48.93854238 -112.25 51.9375 C-116.13025836 53.70501982 -120.0868481 55.07152896 -124.125 56.4375 C-128.23098236 57.85625171 -131.64798598 59.17775807 -135.0625 61.875 C-138 64 -138 64 -140.9375 63.8125 C-141.618125 63.544375 -142.29875 63.27625 -143 63 C-139.86423712 60.48941397 -136.61585177 58.66776679 -133.0390625 56.84765625 C-132.46055542 56.55145386 -131.88204834 56.25525146 -131.28601074 55.95007324 C-130.04512087 55.31478987 -128.80345812 54.68101427 -127.56109619 54.0486145 C-124.27547774 52.375146 -120.99667335 50.68848154 -117.71875 49 C-117.06077423 48.66110245 -116.40279846 48.3222049 -115.72488403 47.97303772 C-109.81257674 44.91928886 -103.95773887 41.76561454 -98.125 38.5625 C-97.23232422 38.07241455 -96.33964844 37.5823291 -95.41992188 37.07739258 C-93.7237262 36.14527906 -92.02775074 35.21276468 -90.33203125 34.27978516 C-81.39859112 29.3772419 -72.38757812 24.6636081 -63.25805664 20.13745117 C-57.98836309 17.51624659 -52.76958272 14.8057333 -47.5625 12.0625 C-46.76666504 11.64709961 -45.97083008 11.23169922 -45.15087891 10.80371094 C-41.20693042 8.73604089 -37.3126746 6.61871623 -33.47265625 4.36328125 C-21.98531804 -2.28338409 -13.00388194 -4.07964924 0 0 Z " fill="#003D9F" transform="translate(286,320)"/>
<path d="M0 0 C-3.31453514 2.20969009 -6.10722694 3.03289203 -9.93359375 4.12890625 C-10.60793961 4.32346909 -11.28228546 4.51803192 -11.97706604 4.7184906 C-14.12917301 5.33805658 -16.28329396 5.95027729 -18.4375 6.5625 C-19.88359671 6.97805248 -21.32956186 7.39406309 -22.77539062 7.81054688 C-34.03726392 11.04578954 -34.03726392 11.04578954 -38 12 C-38 11.34 -38 10.68 -38 10 C-39.32 9.67 -40.64 9.34 -42 9 C-33.69255415 6.91683015 -25.3828223 4.84368176 -17.0625 2.8125 C-15.96615234 2.53986328 -14.86980469 2.26722656 -13.74023438 1.98632812 C-12.1537207 1.60057617 -12.1537207 1.60057617 -10.53515625 1.20703125 C-9.590354 0.9747583 -8.64555176 0.74248535 -7.67211914 0.50317383 C-5.04521283 0.00851381 -2.6656503 -0.09335667 0 0 Z " fill="#0045B2" transform="translate(484,201)"/>
<path d="M0 0 C0.66 0 1.32 0 2 0 C2.33 7.26 2.66 14.52 3 22 C2.01 22.33 1.02 22.66 0 23 C-0.19588601 19.3545658 -0.38030536 15.7086421 -0.5625 12.0625 C-0.61857422 11.02158203 -0.67464844 9.98066406 -0.73242188 8.90820312 C-0.78076172 7.91884766 -0.82910156 6.92949219 -0.87890625 5.91015625 C-0.9260376 4.99371338 -0.97316895 4.07727051 -1.02172852 3.13305664 C-1 1 -1 1 0 0 Z " fill="#0044AF" transform="translate(139,284)"/>
<path d="M0 0 C0.99 0.66 1.98 1.32 3 2 C-2.29230769 6.06153846 -2.29230769 6.06153846 -5.875 5.75 C-6.57625 5.5025 -7.2775 5.255 -8 5 C-5.44008376 2.98863724 -2.95409701 1.37154504 0 0 Z " fill="#003FAE" transform="translate(151,378)"/>
<path d="M0 0 C4 1 4 1 4 1 Z " fill="#003BE1" transform="translate(217,375)"/>
<path d="M0 0 C2 1 2 1 2 1 Z " fill="#0000FF" transform="translate(321,361)"/>
<path d="M0 0 C2 1 2 1 2 1 Z " fill="#0000FF" transform="translate(346,336)"/>
<path d="M0 0 C2 1 2 1 2 1 Z " fill="#0038FF" transform="translate(328,331)"/>
<path d="M0 0 C2 1 2 1 2 1 Z " fill="#004F90" transform="translate(272,317)"/>
<path d="M0 0 C2 1 2 1 2 1 Z " fill="#0040FF" transform="translate(11,316)"/>
<path d="M0 0 C2 1 2 1 2 1 Z " fill="#0051CE" transform="translate(63,177)"/>
<path d="M0 0 C2 1 2 1 2 1 Z " fill="#0047FF" transform="translate(136,154)"/>
<path d="M0 0 C2 1 2 1 2 1 Z " fill="#0060BF" transform="translate(181,140)"/>
<path d="M0 0 C2 1 2 1 2 1 Z " fill="#003CC3" transform="translate(223,127)"/>
<path d="" fill="#0000FF" transform="translate(0,0)"/>
<path d="" fill="#0000FF" transform="translate(0,0)"/>
<path d="" fill="#0080FF" transform="translate(0,0)"/>
<path d="" fill="#0055AA" transform="translate(0,0)"/>
<path d="" fill="#0000FF" transform="translate(0,0)"/>
<path d="" fill="#0000FF" transform="translate(0,0)"/>
<path d="" fill="#0000FF" transform="translate(0,0)"/>
<path d="" fill="#0000FF" transform="translate(0,0)"/>
<path d="" fill="#0000FF" transform="translate(0,0)"/>
<path d="" fill="#0000FF" transform="translate(0,0)"/>
<path d="" fill="#0080FF" transform="translate(0,0)"/>
<path d="" fill="#0000FF" transform="translate(0,0)"/>
<path d="" fill="#0080FF" transform="translate(0,0)"/>
<path d="" fill="#0052FF" transform="translate(0,0)"/>
<path d="" fill="#0000FF" transform="translate(0,0)"/>
</svg>
